<?xml version="1.0" encoding="utf-8"?>
<!-- Generator: Adobe Illustrator 26.2.1, SVG Export Plug-In . SVG Version: 6.00 Build 0)  -->
<svg version="1.1" id="_x3C_Layer_x3E_" xmlns="http://www.w3.org/2000/svg" xmlns:xlink="http://www.w3.org/1999/xlink" x="0px"
	 y="0px" viewBox="0 0 2760 1840" style="enable-background:new 0 0 2760 1840;" xml:space="preserve">
<style type="text/css">
	.st0{fill:#BDD1FF;}
	.st1{fill:#283689;}
	.st2{fill:#8FA6EF;}
	.st3{fill:#505ABA;}
	.st4{fill:#2B478B;}
	.st5{fill:#778DE8;}
	.st6{fill:#E27227;}
	.st7{fill:#1C3870;}
	.st8{fill:#8C9DF4;}
	.st9{fill:#1B376D;}
	.st10{fill:#FFC107;}
	.st11{opacity:0.7;}
	.st12{fill:#D86713;}
	.st13{fill:#A8D29F;}
	.st14{fill:#82B378;}
	.st15{opacity:0.1;}
	.st16{fill:#DDE7FE;}
	.st17{fill:#EBF2F9;}
	.st18{fill:#D5E5FB;}
	.st19{fill:#E2EEFD;}
	.st20{fill:#9DB0F4;}
	.st21{fill:#AFCDFB;}
	.st22{fill:#AEC3FF;}
	.st23{fill:#819DEA;}
	.st24{fill:#C5D7FF;}
	.st25{fill:#D36D1A;}
	.st26{fill:#F49540;}
	.st27{fill:#FFA255;}
	.st28{fill:#F8FCFF;}
	.st29{opacity:0.5;}
	.st30{fill:#F99746;}
	.st31{fill:#ED7D2B;}
	.st32{fill:#131375;}
	.st33{fill:#060633;}
	.st34{fill:#829CE8;}
	.st35{fill:#ED975D;}
	.st36{fill:#FFB27D;}
	.st37{fill:#A9453D;}
	.st38{fill:#7A96E5;}
	.st39{fill:#233862;}
	.st40{fill:#EF873A;}
	.st41{fill:#F77D48;}
	.st42{fill:#15156D;}
	.st43{fill:#FA7267;}
	.st44{fill:#17152B;}
	.st45{opacity:0.3;}
	.st46{fill:#EA9963;}
	.st47{fill:#6980E2;}
	.st48{fill:#9FB1FF;}
	.st49{fill:#182D4C;}
	.st50{fill:#FFB583;}
	.st51{fill:#EA6C2D;}
	.st52{fill:#95C38B;}
	.st53{fill:#B5453C;}
	.st54{fill:#EFCBAB;}
	.st55{fill:#699DEE;}
	.st56{fill:#548EE2;}
</style>
<g>
	<g>
		<path class="st0" d="M2627.8,1444.08c-6.17,11.31-12.37,21.35-18.19,30.06c-0.17,0.26-0.34,0.52-0.52,0.77
			c-16.83,25.07-45.07,40.08-75.26,40.08c-161.8-0.01-720.25-0.03-894.32-0.09c0,0-913.16-2.59-1198.81-3.52
			c-55.9-0.18-106.37-33.27-129.01-84.38c-25.72-58.03-53.6-141.64-56.84-236.39c-5.14-150.34,51.77-328.74,277.8-477.56
			c194.23-127.88-12.16-212.3,142.3-354.67c177.49-163.6,371.21,17.39,568.6-56.8c34.87-13.1,69.86-34.17,104.89-66.52
			c19.73-18.19,41.34-34.09,64.47-47.83c3.55-2.11,7.13-4.17,10.75-6.18c13.86-7.68,28.22-14.62,43.01-20.87
			c9.94-4.18,20.05-8.06,30.38-11.61c16.36-5.65,33.19-10.52,50.35-14.64c24.38-5.86,49.49-10.22,75.07-13.17
			c11.17-1.3,22.43-2.3,33.77-3.07c220.54-14.83,468.74,68.52,596.82,190.32c25.78,24.54,143.04,151.45,50.62,325.89
			c-58.37,110.13,186.12,215.33,273,341.1c54.36,78.69,82.17,151.09,93.18,215.61C2688.69,1300.81,2658.48,1387.97,2627.8,1444.08z"
			/>
	</g>
	<g>
		<path class="st1" d="M1080.06,1190.92l-4.74-0.61c0.11-0.85,2.92-21,22.78-33.56c17.55-11.1,11.55-45.8,11.49-46.15l4.7-0.85
			c0.07,0.38,1.69,9.54,0.92,20.35c-1.04,14.7-6.07,25.31-14.57,30.69C1082.67,1172.16,1080.08,1190.73,1080.06,1190.92z"/>
	</g>
	<g>
		<path class="st1" d="M1110.64,1191.76c-0.12-0.22-11.64-21.86,9.15-35.02c17.17-10.86,1.93-44.6,1.77-44.94l4.34-2
			c0.17,0.38,4.27,9.38,6.03,20.05c2.42,14.73-0.89,25.42-9.59,30.92c-17.05,10.78-7.91,27.96-7.51,28.68L1110.64,1191.76z"/>
	</g>
	<g>
		<path class="st2" d="M2628.04,1495.21c-0.4,0.9-0.79,1.79-1.2,2.68c-0.8,1.78-1.6,3.53-2.4,5.25
			c-5.37,11.59-10.72,22.01-15.79,31.2c-0.17,0.32-0.34,0.62-0.52,0.94c-16.83,30.4-45.07,48.59-75.27,48.59
			c-64.19,0-190.8-0.01-331.07-0.02h-19.12c-76.45-0.01-156.26-0.01-231.69-0.03h-22.54c-121.35-0.01-229.08-0.03-289.89-0.06
			c0,0-305.8-1.05-618.83-2.15c-5.3-0.02-10.6-0.04-15.9-0.06c-91.12-0.33-182.43-0.65-266.55-0.96
			c-10.89-0.04-21.65-0.08-32.28-0.11c-108.03-0.38-202.01-0.74-265.25-0.99c-44.28-0.17-85.15-25.38-111.48-66.65
			c-1.39-2.17-2.73-4.39-4.03-6.65c-5.2-9-9.73-18.7-13.5-28.99c-25.72-70.35-53.6-171.71-56.84-286.58h2415.02
			C2687.48,1322.46,2658.3,1427.11,2628.04,1495.21z"/>
	</g>
	<g>
		<g>
			<polygon class="st3" points="2105.08,1432.04 747.09,1432.04 883.96,1292.61 1985.8,1292.61 			"/>
		</g>
		<g>
			<rect x="747.09" y="1432.04" class="st4" width="1357.98" height="17.81"/>
		</g>
		<g>
			<g>
				<g>
					<rect x="891.79" y="1321.85" class="st4" width="1082.34" height="4.75"/>
				</g>
			</g>
			<g>
				<g>
					<rect x="855.1" y="1350.98" class="st4" width="1148.06" height="4.76"/>
				</g>
			</g>
			<g>
				<g>
					<rect x="824.53" y="1383.18" class="st4" width="1209.21" height="4.75"/>
				</g>
			</g>
			<g>
				<rect x="897.28" y="1300.38" class="st4" width="48.93" height="14.68"/>
			</g>
			<g>
				<rect x="1272.11" y="1300.38" class="st4" width="48.94" height="14.68"/>
			</g>
			<g>
				<rect x="1350.81" y="1300.38" class="st4" width="48.94" height="14.68"/>
			</g>
			<g>
				<rect x="1560.03" y="1300.38" class="st4" width="48.93" height="14.68"/>
			</g>
			<g>
				<rect x="1632.8" y="1300.38" class="st4" width="48.94" height="14.68"/>
			</g>
			<g>
				<rect x="1711.5" y="1300.38" class="st4" width="48.93" height="14.68"/>
			</g>
		</g>
	</g>
	<g>
		<g>
			<path class="st4" d="M2609.87,1190.61h-9.61c-21.69-31.71-40.49-33.18-76.93-36.01c-11.21-0.86-23.92-1.85-38.8-3.86
				c-33.19-4.46-44.1-22.27-56.73-42.9c-5.72-9.34-11.62-19-20.25-28.76c-26.49-29.97-86.04-21.22-86.64-21.13l-1.23-7.91
				c2.62-0.4,64.47-9.53,93.86,23.73c9.09,10.3,15.47,20.71,21.09,29.89c12.5,20.43,21.54,35.18,50.97,39.14
				c14.65,1.97,27.24,2.94,38.34,3.81C2563.57,1149.69,2584.79,1151.33,2609.87,1190.61z"/>
		</g>
	</g>
	<g>
		<g>
			<path class="st5" d="M2290.22,1245.68H2110.5c-16.27,0-29.46-13.19-29.46-29.46V1036.5c0-16.27,13.19-29.46,29.46-29.46h179.73
				c16.27,0,29.46,13.19,29.46,29.46v179.72C2319.68,1232.5,2306.49,1245.68,2290.22,1245.68z"/>
		</g>
		<g>
			<g>
				<g>
					<path class="st6" d="M2282.16,1120.99c0,4.28-0.33,8.49-0.96,12.6c-0.15,1-0.33,1.99-0.53,2.98
						c-1.35,7.06-3.62,13.8-6.66,20.09c-0.29,0.6-0.59,1.2-0.9,1.79c-5.32,10.35-12.8,19.41-21.83,26.62
						c-0.49,0.39-0.98,0.78-1.48,1.15c-9.19,7-19.93,12.1-31.6,14.7h-0.01l-2.1,0.45h-0.01c-2.96,0.58-5.96,1-9.03,1.24
						c-1,0.09-1.99,0.16-2.99,0.19h-0.01c-1.25,0.08-2.52,0.1-3.78,0.1c-8.72,0-17.12-1.37-25.01-3.9c-1.23-0.39-2.44-0.8-3.65-1.26
						c-2.82-1.04-5.56-2.24-8.22-3.6c-0.6-0.3-1.19-0.6-1.78-0.91c-11.39-6.11-21.15-14.83-28.51-25.35
						c-0.36-0.51-0.73-1.03-1.08-1.55c-5.05-7.59-8.87-16.07-11.17-25.16c-0.31-1.24-0.6-2.49-0.85-3.76
						c-0.63-3.07-1.08-6.19-1.35-9.37c-0.06-0.79-0.13-1.58-0.16-2.37v-0.01c-0.09-1.55-0.14-3.11-0.14-4.67
						c0-8.52,1.3-16.72,3.71-24.45c0.21-0.68,0.44-1.36,0.67-2.04c3.83-11.25,10.06-21.39,18.05-29.84c0.44-0.45,0.86-0.9,1.32-1.34
						c8.08-8.17,17.87-14.63,28.81-18.83c0.63-0.25,1.25-0.48,1.89-0.7c8.59-3.06,17.84-4.72,27.47-4.72
						c4.61,0,9.13,0.38,13.53,1.12c0.78,0.12,1.55,0.26,2.33,0.43c0.55,0.1,1.1,0.21,1.65,0.34c1.08,0.24,2.15,0.49,3.22,0.78
						c11.82,3.07,22.62,8.74,31.73,16.35c0.49,0.4,0.96,0.8,1.44,1.23c9.63,8.42,17.26,19.05,22.11,31.1
						c0.26,0.61,0.5,1.23,0.73,1.85c2,5.32,3.46,10.92,4.31,16.71c0.16,1.08,0.3,2.17,0.4,3.26v0.01
						C2282,1115.12,2282.16,1118.04,2282.16,1120.99z"/>
				</g>
			</g>
			<g>
				<g>
					<g>
						<path class="st7" d="M2251.28,1185.07c-0.49,0.39-0.98,0.78-1.48,1.15l-10.91-12.16l-1.25-1.39l-22.42-25.01l-1.25-1.39
							l-25.31-28.22l-1.25-1.39l-24.99-27.87l-1.25-1.4l-20.39-22.72c0.44-0.45,0.86-0.9,1.32-1.34l20.47,22.82l1.25,1.39
							l24.99,27.87l1.25,1.39l25.31,28.22l1.25,1.39l22.43,25.01l1.24,1.39L2251.28,1185.07z"/>
					</g>
				</g>
				<g>
					<g>
						<path class="st7" d="M2274.01,1156.67c-0.29,0.6-0.59,1.2-0.9,1.79l-7.5-8.37l-1.25-1.39l-22.42-25l-1.25-1.39l-25.31-28.22
							l-1.25-1.39l-25-27.88l-1.24-1.39l-16.98-18.93c0.63-0.25,1.25-0.48,1.89-0.7l16.48,18.39l1.25,1.39l24.99,27.87l1.25,1.39
							l25.31,28.22l1.25,1.39l22.42,25.01l1.25,1.39L2274.01,1156.67z"/>
					</g>
				</g>
				<g>
					<g>
						<path class="st7" d="M2281.29,1108.97c0.16,1.08,0.3,2.17,0.4,3.26l-12.03-13.4l-1.24-1.39l-25.33-28.23l-1.24-1.39
							l-24.1-26.85c1.08,0.24,2.15,0.49,3.22,0.78l22.27,24.83l1.25,1.39l25.31,28.23l1.24,1.39L2281.29,1108.97z"/>
					</g>
				</g>
				<g>
					<g>
						<path class="st7" d="M2218.18,1200.93l-2.1,0.45h-0.01l-3.41-3.81l-1.24-1.39l-22.43-25l-1.25-1.39l-25.3-28.22l-1.25-1.4
							l-25-27.86l-1.25-1.4l-12.89-14.37c0.21-0.68,0.44-1.36,0.67-2.04l13.6,15.17l1.25,1.39l25,27.87l1.24,1.39l25.33,28.22
							l1.24,1.39l22.43,25.01l1.25,1.39L2218.18,1200.93z"/>
					</g>
				</g>
				<g>
					<g>
						<path class="st7" d="M2216.1,1040.62l-25.59,22.96l-1.4,1.24l-25.31,22.72l-1.39,1.25l-24.84,22.27l-1.39,1.25l-17.55,15.73
							c-0.06-0.79-0.13-1.58-0.16-2.37v-0.01l16.46-14.75l1.39-1.24l24.84-22.28l1.39-1.24l25.33-22.72l1.39-1.24l24.51-21.99
							C2214.55,1040.32,2215.33,1040.46,2216.1,1040.62z"/>
					</g>
				</g>
				<g>
					<g>
						<path class="st7" d="M2254.14,1059.31l-9.65,8.64l-1.4,1.25l-26.34,23.63l-1.39,1.25l-25.33,22.71l-1.39,1.25l-24.84,22.27
							l-1.38,1.25l-21.47,19.24l-1.39,1.25l-6.49,5.82c-0.36-0.51-0.73-1.03-1.08-1.55l6.33-5.66l1.39-1.25l21.46-19.25l1.39-1.24
							l24.83-22.27l1.39-1.25l25.33-22.71l1.39-1.25l26.35-23.63l1.39-1.25l9.46-8.48
							C2253.19,1058.48,2253.67,1058.88,2254.14,1059.31z"/>
					</g>
				</g>
				<g>
					<g>
						<path class="st7" d="M2276.98,1092.26l-5.92,5.31l-1.39,1.25l-26.34,23.62l-1.39,1.25l-25.33,22.71l-1.39,1.25l-24.84,22.27
							l-1.39,1.25l-21.46,19.24l-1.39,1.25l-2.77,2.48c-0.6-0.3-1.19-0.6-1.78-0.91l3.29-2.96l1.39-1.25l21.46-19.24l1.4-1.25
							l24.82-22.27l1.39-1.25l25.33-22.71l1.39-1.25l26.35-23.62l1.39-1.25l6.44-5.77
							C2276.51,1091.02,2276.75,1091.64,2276.98,1092.26z"/>
					</g>
				</g>
				<g>
					<g>
						<path class="st7" d="M2281.2,1133.59c-0.15,1-0.33,1.99-0.53,2.98l-13.68,12.28l-1.39,1.24l-25.33,22.72l-1.39,1.25
							l-24.83,22.27l-1.4,1.24l-5.62,5.05c-1,0.09-1.99,0.16-2.99,0.19l7.38-6.63l1.39-1.24l24.83-22.27l1.4-1.25l25.31-22.72
							l1.39-1.24L2281.2,1133.59z"/>
					</g>
				</g>
				<g>
					<g>
						<path class="st7" d="M2175.23,1199.01c-1.23-0.39-2.44-0.8-3.65-1.26l-5.45-6.08l-1.25-1.39l-25.31-28.22l-1.24-1.39
							l-17.5-19.5c-0.31-1.24-0.6-2.49-0.85-3.76l19.74,22.01l1.24,1.39l25.31,28.22l1.25,1.39L2175.23,1199.01z"/>
					</g>
				</g>
			</g>
		</g>
	</g>
	<g>
		<g>
			<path class="st8" d="M2290.22,1007.81H2110.5c-16.27,0-29.46-13.19-29.46-29.46V798.62c0-16.27,13.19-29.46,29.46-29.46h179.73
				c16.27,0,29.46,13.19,29.46,29.46v179.73C2319.68,994.62,2306.49,1007.81,2290.22,1007.81z"/>
		</g>
		<g>
			<g>
				<g>
					<path class="st6" d="M2282.16,883.12c0,4.28-0.33,8.49-0.96,12.6c-0.15,1-0.33,1.99-0.53,2.98c-1.35,7.06-3.62,13.8-6.66,20.09
						c-0.29,0.6-0.59,1.2-0.9,1.79c-5.32,10.35-12.8,19.42-21.83,26.62c-0.49,0.39-0.98,0.78-1.48,1.15
						c-9.19,7-19.93,12.1-31.6,14.71h-0.01l-2.1,0.45h-0.01c-2.96,0.58-5.96,1-9.03,1.24c-1,0.09-1.99,0.16-2.99,0.19h-0.01
						c-1.25,0.08-2.52,0.1-3.78,0.1c-8.72,0-17.12-1.37-25.01-3.9c-1.23-0.39-2.44-0.8-3.65-1.26c-2.82-1.04-5.56-2.24-8.22-3.59
						c-0.6-0.3-1.19-0.6-1.78-0.92c-11.39-6.11-21.15-14.83-28.51-25.35c-0.36-0.51-0.73-1.03-1.08-1.55
						c-5.05-7.59-8.87-16.07-11.17-25.16c-0.31-1.24-0.6-2.49-0.85-3.76c-0.63-3.07-1.08-6.19-1.35-9.37
						c-0.06-0.79-0.13-1.58-0.16-2.37v-0.01c-0.09-1.55-0.14-3.11-0.14-4.67c0-8.52,1.3-16.72,3.71-24.45
						c0.21-0.68,0.44-1.37,0.67-2.04c3.83-11.25,10.06-21.39,18.05-29.83c0.44-0.45,0.86-0.9,1.32-1.34
						c8.08-8.17,17.87-14.63,28.81-18.83c0.63-0.25,1.25-0.47,1.89-0.7c8.59-3.06,17.84-4.72,27.47-4.72
						c4.61,0,9.13,0.38,13.53,1.12c0.78,0.12,1.55,0.26,2.33,0.42c0.55,0.1,1.1,0.21,1.65,0.34c1.08,0.24,2.15,0.49,3.22,0.78
						c11.82,3.07,22.62,8.74,31.73,16.34c0.49,0.4,0.96,0.8,1.44,1.23c9.63,8.42,17.26,19.05,22.11,31.1
						c0.26,0.61,0.5,1.23,0.73,1.85c2,5.32,3.46,10.92,4.31,16.71c0.16,1.08,0.3,2.17,0.4,3.26v0.01
						C2282,877.24,2282.16,880.16,2282.16,883.12z"/>
				</g>
			</g>
			<g>
				<g>
					<g>
						<path class="st7" d="M2251.28,947.2c-0.49,0.39-0.98,0.78-1.48,1.15l-10.91-12.16l-1.25-1.39l-22.42-25.01l-1.25-1.39
							l-25.31-28.22l-1.25-1.39l-24.99-27.87l-1.25-1.4l-20.39-22.72c0.44-0.45,0.86-0.9,1.32-1.34l20.47,22.82l1.25,1.39
							l24.99,27.87l1.25,1.39l25.31,28.22l1.25,1.39l22.43,25.01l1.24,1.39L2251.28,947.2z"/>
					</g>
				</g>
				<g>
					<g>
						<path class="st7" d="M2274.01,918.79c-0.29,0.6-0.59,1.2-0.9,1.79l-7.5-8.37l-1.25-1.39l-22.42-25l-1.25-1.39l-25.31-28.22
							l-1.25-1.39l-25-27.88l-1.24-1.39l-16.98-18.93c0.63-0.25,1.25-0.47,1.89-0.7l16.48,18.39l1.25,1.39l24.99,27.87l1.25,1.39
							l25.31,28.22l1.25,1.39l22.42,25.01l1.25,1.39L2274.01,918.79z"/>
					</g>
				</g>
				<g>
					<g>
						<path class="st7" d="M2281.29,871.09c0.16,1.08,0.3,2.17,0.4,3.26l-12.03-13.4l-1.24-1.39l-25.33-28.23l-1.24-1.39
							l-24.1-26.85c1.08,0.24,2.15,0.49,3.22,0.78l22.27,24.82l1.25,1.39l25.31,28.23l1.24,1.39L2281.29,871.09z"/>
					</g>
				</g>
				<g>
					<g>
						<path class="st7" d="M2218.18,963.05l-2.1,0.45h-0.01l-3.41-3.81l-1.24-1.39l-22.43-25l-1.25-1.39l-25.3-28.22l-1.25-1.4
							l-25-27.86l-1.25-1.4l-12.89-14.37c0.21-0.68,0.44-1.37,0.67-2.04l13.6,15.17l1.25,1.39l25,27.87l1.24,1.39l25.33,28.22
							l1.24,1.39l22.43,25.01l1.25,1.39L2218.18,963.05z"/>
					</g>
				</g>
				<g>
					<g>
						<path class="st7" d="M2216.1,802.74l-25.59,22.96l-1.4,1.24l-25.31,22.72l-1.39,1.25l-24.84,22.27l-1.39,1.25l-17.55,15.73
							c-0.06-0.79-0.13-1.58-0.16-2.37v-0.01l16.46-14.75l1.39-1.24l24.84-22.28l1.39-1.24l25.33-22.72l1.39-1.24l24.51-22
							C2214.55,802.44,2215.33,802.58,2216.1,802.74z"/>
					</g>
				</g>
				<g>
					<g>
						<path class="st7" d="M2254.14,821.43l-9.65,8.64l-1.4,1.25l-26.34,23.64l-1.39,1.25l-25.33,22.71l-1.39,1.25l-24.84,22.27
							l-1.38,1.25l-21.47,19.24l-1.39,1.25l-6.49,5.83c-0.36-0.51-0.73-1.03-1.08-1.55l6.33-5.66l1.39-1.25l21.46-19.25l1.39-1.24
							l24.83-22.27l1.39-1.25l25.33-22.71l1.39-1.25l26.35-23.63l1.39-1.25l9.46-8.48C2253.19,820.6,2253.67,821.01,2254.14,821.43z
							"/>
					</g>
				</g>
				<g>
					<g>
						<path class="st7" d="M2276.98,854.39l-5.92,5.31l-1.39,1.25l-26.34,23.62l-1.39,1.25l-25.33,22.71l-1.39,1.25l-24.84,22.27
							l-1.39,1.25l-21.46,19.24l-1.39,1.25l-2.77,2.48c-0.6-0.3-1.19-0.6-1.78-0.92l3.29-2.96l1.39-1.25l21.46-19.24l1.4-1.25
							l24.82-22.27l1.39-1.25l25.33-22.71l1.39-1.25l26.35-23.62l1.39-1.25l6.44-5.77C2276.51,853.14,2276.75,853.76,2276.98,854.39
							z"/>
					</g>
				</g>
				<g>
					<g>
						<path class="st7" d="M2281.2,895.72c-0.15,1-0.33,1.99-0.53,2.98l-13.68,12.27l-1.39,1.24l-25.33,22.72l-1.39,1.25
							l-24.83,22.27l-1.4,1.24l-5.62,5.05c-1,0.09-1.99,0.16-2.99,0.19l7.38-6.63l1.39-1.24l24.83-22.27l1.4-1.25l25.31-22.72
							l1.39-1.24L2281.2,895.72z"/>
					</g>
				</g>
				<g>
					<g>
						<path class="st7" d="M2175.23,961.14c-1.23-0.39-2.44-0.8-3.65-1.26l-5.45-6.08l-1.25-1.39l-25.31-28.22l-1.24-1.39
							l-17.5-19.5c-0.31-1.24-0.6-2.49-0.85-3.76l19.74,22.01l1.24,1.39l25.31,28.22l1.25,1.39L2175.23,961.14z"/>
					</g>
				</g>
			</g>
		</g>
	</g>
	<g>
		<g>
			<g>
				<g>
					<path class="st9" d="M2232.5,1397.92l126.59-113.9c5.16-4.64,19.24-7.83,31.46-7.12l162.41,9.4
						c12.21,0.71,17.93,5.04,12.77,9.69l-126.59,113.9c-5.16,4.64-19.24,7.83-31.45,7.12l-162.41-9.4
						C2233.06,1406.9,2227.34,1402.56,2232.5,1397.92z"/>
				</g>
				<g>
					<polygon class="st9" points="2567.63,1290.62 2567.63,1276.8 2233.75,1384.2 2230.86,1387.18 2230.6,1401.81 2378.12,1406.63 
											"/>
				</g>
			</g>
			<g>
				<g>
					<path class="st3" d="M2388.24,1262.61l159.64,9.24c12.81,0.74,18.81,5.29,13.4,10.16l-119,107.07
						c-7.79,7.01-29.06,11.83-47.5,10.76l-143.05-8.28c-13.58-0.79-19.93-5.61-14.2-10.77l124.84-112.32
						C2366.62,1264.65,2378.2,1262.03,2388.24,1262.61z"/>
				</g>
				<g>
					<path class="st4" d="M2567.58,1276.82c-0.54-2.99-5.95-5.3-14.62-5.81l-162.41-9.4c-12.22-0.72-26.29,2.48-31.45,7.12
						l-126.59,113.89c-1.78,1.6-2.28,3.16-1.64,4.55v0.01c0.88,1.93,3.91,3.54,8.63,4.45h0.01c1.71,0.32,3.64,0.56,5.76,0.69
						l142.73,8.26h0.01l19.67,1.14c12.21,0.71,26.3-2.49,31.45-7.12l88-79.18l0.01-0.01l31.59-28.42l7-6.29
						c1.29-1.17,1.9-2.3,1.9-3.37C2567.63,1277.15,2567.61,1276.99,2567.58,1276.82z M2560.12,1280.36l-6.63,5.96l-0.01,0.01
						l-44.92,40.44l-0.07,0.06l-73.28,65.91l-0.01,0.01l-1.39,1.25l-0.01,0.01l-0.29,0.26c-3.85,3.47-14.37,5.84-23.48,5.31
						l-0.66-0.03h-0.05l-17.95-1.05l-143.75-8.32c-2.16-0.13-4.06-0.41-5.64-0.81c-5.06-1.26-6.83-3.77-3.9-6.42l0.29-0.24
						l0.02-0.02l1.39-1.25l124.9-112.39c3.85-3.45,14.38-5.83,23.49-5.3l162.39,9.39c7.75,0.45,12,2.86,10.73,5.7
						C2561.11,1279.34,2560.71,1279.83,2560.12,1280.36z"/>
				</g>
				<g>
					<path class="st4" d="M2242.76,1391.04l165.3,9.57c11.11,0.64,23.91-2.26,28.61-6.48l1.35-1.21l-201.03-11.63l-3.25,2.92
						C2230.1,1387.48,2234.14,1390.54,2242.76,1391.04z"/>
				</g>
			</g>
		</g>
		<g>
			<path class="st9" d="M2628.04,1495.21c-0.4,0.9-0.79,1.79-1.2,2.68c-0.8,1.78-1.6,3.53-2.4,5.25
				c-30.54-0.26-69.38,2.39-109.76,5.15c-104.46,7.13-212.45,14.5-246.93-18.99c-11.4-11.1-15.49-22.84-12.16-34.93
				c5.21-18.88,27.55-34.32,44.43-43.59c0-0.01,0.01-0.01,0.01-0.01c4.72-2.6,9.03-4.71,12.42-6.28h0.01
				c4.13-1.92,6.9-3.04,7.38-3.22l2.33,3.54l2.33,3.55c-0.12,0.05-3.09,1.24-7.63,3.4c-14.62,6.91-45.58,23.72-51.26,44.29
				c-2.69,9.77,0.6,19.01,10.11,28.26c31.07,30.18,141.05,22.67,238.07,16.05C2555.89,1497.47,2596.33,1494.71,2628.04,1495.21z"/>
		</g>
	</g>
	<g>
		<g>
			<g>
				<rect x="825.83" y="413.08" class="st10" width="1198.14" height="703.38"/>
			</g>
		</g>
		<g>
			<rect x="825.83" y="413.08" class="st1" width="1198.14" height="591.01"/>
		</g>
		<g>
			<path class="st10" d="M1581.71,1231.05v17.09h-351.8v-17.09c24.86,0,45.22-19.19,47.1-43.55c0.09-1.22,0.14-2.45,0.14-3.69
				v-67.34h257.32v67.34c0,1.24,0.05,2.47,0.14,3.69c0.89,11.57,5.96,21.98,13.69,29.72
				C1556.85,1225.76,1568.66,1231.05,1581.71,1231.05z"/>
		</g>
		<g class="st11">
			<rect x="1277.15" y="1116.46" class="st12" width="257.32" height="14.07"/>
		</g>
		<g class="st11">
			<path class="st12" d="M1581.71,1231.05h-351.8c24.86,0,45.22-19.19,47.1-43.55h257.6c0.89,11.57,5.96,21.98,13.69,29.72
				C1556.85,1225.76,1568.66,1231.05,1581.71,1231.05z"/>
		</g>
	</g>
	<g>
		<g>
			<path class="st13" d="M568.84,1014.57c0,0-12.47-110.68,35.42-203.94c5.08-9.89,17.68-7.4,19.76,3.92
				c7.45,40.58,14.87,121.63-19.45,207.74C555.72,1144.83,568.84,1014.57,568.84,1014.57z"/>
		</g>
		<g>
			<path class="st13" d="M626.02,1036.45c0,0,7.82-111.1,71.84-194.13c6.79-8.8,18.73-4.07,18.72,7.44
				c-0.04,41.25-7.45,122.31-56.83,200.76C589.49,1162.17,626.02,1036.45,626.02,1036.45z"/>
		</g>
		<g>
			<path class="st14" d="M594.17,1014.32c0,0,0.23-111.38,58.43-198.58c6.17-9.25,18.41-5.33,19.18,6.15
				c2.77,41.16,0.91,122.53-43,204.17C566.3,1142.24,594.17,1014.32,594.17,1014.32z"/>
		</g>
		<g>
			<path class="st14" d="M631.79,1019.95c0,0,21.98-84.13,83.04-138.64c6.47-5.78,14.96-0.43,13.29,8.4
				c-5.96,31.65-23.3,92.78-72.48,145.89C585.68,1111.17,631.79,1019.95,631.79,1019.95z"/>
		</g>
		<g>
			<path class="st13" d="M549.63,1027.54c0,0,12.47-110.68-35.42-203.94c-5.08-9.89-17.68-7.4-19.76,3.92
				c-7.45,40.58-14.87,121.63,19.45,207.74C562.74,1157.8,549.63,1027.54,549.63,1027.54z"/>
		</g>
		<g>
			<path class="st13" d="M492.44,1049.42c0,0-7.82-111.1-71.84-194.13c-6.79-8.8-18.73-4.07-18.72,7.44
				c0.04,41.25,7.45,122.31,56.83,200.76C528.97,1175.14,492.44,1049.42,492.44,1049.42z"/>
		</g>
		<g>
			<path class="st14" d="M524.29,1027.29c0,0-0.23-111.38-58.43-198.58c-6.17-9.25-18.41-5.33-19.18,6.15
				c-2.77,41.16-0.91,122.53,43,204.17C552.16,1155.21,524.29,1027.29,524.29,1027.29z"/>
		</g>
		<g>
			<path class="st14" d="M589.12,1033.29c0,0,21-109.38-19.52-206.08c-4.3-10.25-17.06-8.74-20,2.38
				c-10.57,39.88-24.25,120.11,3.31,208.63C592.11,1164.17,589.12,1033.29,589.12,1033.29z"/>
		</g>
		<g>
			<path class="st14" d="M486.67,1032.92c0,0-21.98-84.13-83.04-138.64c-6.47-5.78-14.96-0.43-13.29,8.4
				c5.96,31.65,23.3,92.78,72.48,145.89C532.78,1124.14,486.67,1032.92,486.67,1032.92z"/>
		</g>
		<g>
			<path class="st4" d="M621.27,1216.23H501.2c-49.86,0-90.66-40.8-90.66-90.66v-109.48c0-2.62,2.14-4.76,4.76-4.76h296.63v114.24
				C711.93,1175.44,671.13,1216.23,621.27,1216.23z"/>
		</g>
	</g>
	<g>
		<rect x="842.55" y="427.85" class="st3" width="1164.71" height="553.16"/>
	</g>
	<g>
		<g class="st15">
			<rect x="869.99" y="453.37" class="st16" width="249.73" height="249.73"/>
		</g>
		<g class="st15">
			<rect x="869.99" y="730.59" class="st16" width="249.73" height="227.52"/>
		</g>
		<g class="st15">
			<rect x="1168.1" y="759.23" class="st16" width="804.31" height="198.88"/>
		</g>
		<g>
			<rect x="1168.11" y="453.37" class="st17" width="514.1" height="281.35"/>
		</g>
		<g>
			<g>
				<path class="st18" d="M1657.77,530.13v204.58h-489.66V581.95h18.29v9.48h15.03v-5.51h13.93v-21.84h6.94v-10.19h1.05v10.19h16.65
					v-19.1h1.64v19.1h11.01v-0.27h-0.02v-2.42h0.02v-2.29h-0.02v-3.82h0.02v-2.44h-0.02v-3.81h0.02v-2.44h-0.02v-3.81h0.02v-2.64
					h-0.02v-3.82h0.02v-3.34h-0.02v-3.82h0.02v-2.52h3.28v-2.86h0.53v2.86h24.32v-2.86h0.52v2.86h4.44v19.97l3.12,0.01v-0.01h-0.02
					v-3.81h0.02v-2.64h-0.02v-3.82h0.02v-2.62h-0.02v-3.81h0.02v-0.02h29.48v0.02h5.08c0.26,0.1,0.52,0.2,0.78,0.29v21.79h21.54
					v28.62h17.41v-52.93h3.79v-3.7h0.68v3.7h13.75v-3.7h0.68v3.7h19.47v-3.7h0.68v3.7h12.25v-3.7h0.68v3.7h5.04v49.4h19.24v-7.98
					l22.69,0.07V556.2h4.57v-2.55h0.6v2.55h17.52v0.01h3.51v-2.56h0.6v2.56h4.22v25.74h27.02v9.48h15.02v-5.51h13.93v-21.84h6.95
					v-10.19h1.04v10.19h16.65v-19.1h1.63v19.1h11.01v-0.27h-0.02v-2.42h0.02v-2.29h-0.02v-3.82h0.02v-2.44h-0.02v-3.81h0.02v-2.44
					h-0.02v-3.81h0.02v-2.64h-0.02v-3.82h0.02v-3.34h-0.02v-3.82h0.02v-2.52h3.29v-2.86h0.53v2.86h24.31v-2.86h0.53v2.86h4.43v19.97
					l3.08,0.01h0.05v-0.01h-0.03v-3.81h0.03v-2.64h-0.03v-3.82h0.03v-2.62h-0.03v-3.81h0.03v-0.02h29.48v0.02h5.07
					C1657.33,529.96,1657.54,530.05,1657.77,530.13z"/>
			</g>
			<g>
				<g>
					<rect x="1376.65" y="527.67" class="st19" width="43.5" height="8.37"/>
				</g>
				<g>
					<g>
						<rect x="1586.41" y="526.62" class="st19" width="20.29" height="5.08"/>
					</g>
					<g>
						<rect x="1586.41" y="534.45" class="st19" width="20.29" height="5.09"/>
					</g>
					<g>
						<rect x="1586.41" y="542.44" class="st19" width="20.29" height="5.09"/>
					</g>
					<g>
						<rect x="1586.41" y="550.56" class="st19" width="20.29" height="5.08"/>
					</g>
					<g>
						<rect x="1586.41" y="558.39" class="st19" width="20.29" height="5.09"/>
					</g>
				</g>
				<g>
					<g>
						<rect x="1586.41" y="567.01" class="st19" width="20.29" height="5.09"/>
					</g>
					<g>
						<rect x="1586.41" y="574.84" class="st19" width="20.29" height="5.08"/>
					</g>
					<g>
						<rect x="1586.41" y="582.83" class="st19" width="20.29" height="5.09"/>
					</g>
					<g>
						<rect x="1586.41" y="590.95" class="st19" width="20.29" height="5.08"/>
					</g>
					<g>
						<rect x="1586.41" y="598.78" class="st19" width="20.29" height="5.08"/>
					</g>
				</g>
				<g>
					<g>
						<rect x="1252.43" y="526.62" class="st19" width="21.75" height="5.08"/>
					</g>
					<g>
						<rect x="1252.43" y="534.45" class="st19" width="21.75" height="5.09"/>
					</g>
					<g>
						<rect x="1252.43" y="542.44" class="st19" width="21.75" height="5.09"/>
					</g>
					<g>
						<rect x="1252.43" y="550.56" class="st19" width="21.75" height="5.08"/>
					</g>
					<g>
						<rect x="1252.43" y="558.39" class="st19" width="21.75" height="5.09"/>
					</g>
				</g>
				<g>
					<g>
						<rect x="1252.43" y="567.01" class="st19" width="21.75" height="5.09"/>
					</g>
					<g>
						<rect x="1252.43" y="574.84" class="st19" width="21.75" height="5.08"/>
					</g>
					<g>
						<rect x="1252.43" y="582.83" class="st19" width="21.75" height="5.09"/>
					</g>
					<g>
						<rect x="1252.43" y="590.95" class="st19" width="21.75" height="5.08"/>
					</g>
					<g>
						<rect x="1252.43" y="598.78" class="st19" width="21.75" height="5.08"/>
					</g>
				</g>
				<g>
					<g>
						<rect x="1289.26" y="529.96" class="st19" width="24.72" height="5.09"/>
					</g>
					<g>
						<rect x="1289.26" y="537.78" class="st19" width="24.72" height="5.08"/>
					</g>
					<g>
						<rect x="1289.26" y="545.78" class="st19" width="24.72" height="5.08"/>
					</g>
					<g>
						<rect x="1289.26" y="553.89" class="st19" width="24.72" height="5.09"/>
					</g>
					<g>
						<rect x="1289.26" y="561.73" class="st19" width="24.72" height="5.08"/>
					</g>
				</g>
				<g>
					<g>
						<rect x="1289.26" y="569.89" class="st19" width="24.72" height="5.09"/>
					</g>
					<g>
						<rect x="1289.26" y="577.72" class="st19" width="24.72" height="5.08"/>
					</g>
					<g>
						<rect x="1289.26" y="585.71" class="st19" width="24.72" height="5.08"/>
					</g>
					<g>
						<rect x="1289.26" y="593.83" class="st19" width="24.72" height="5.09"/>
					</g>
					<g>
						<rect x="1289.26" y="601.66" class="st19" width="24.72" height="5.09"/>
					</g>
				</g>
			</g>
		</g>
		<g>
			<g>
				<path class="st20" d="M1613.88,509.02h-1.91l0.02-0.15l0.58-5.1c0.02-0.16,0.16-0.29,0.32-0.29c0.02,0,0.04,0,0.06,0
					c0.11,0.01,0.21,0.06,0.28,0.13c0.09,0.08,0.15,0.2,0.17,0.33L1613.88,509.02z"/>
			</g>
			<g>
				<path class="st21" d="M1612.15,507.86l-0.07,0l0.48-4.09c0.02-0.16,0.16-0.29,0.32-0.29c0.02,0,0.04,0,0.06,0
					c0.02,0.02,0.04,0.03,0.05,0.05c0.08,0.09,0.13,0.21,0.14,0.34l0.03,2.94C1613.17,507.38,1612.72,507.85,1612.15,507.86z"/>
			</g>
			<g>
				<rect x="1611.41" y="531.69" class="st20" width="3.68" height="162.64"/>
			</g>
			<g>
				<rect x="1611.41" y="531.69" class="st22" width="1.7" height="162.64"/>
			</g>
			<g>
				<rect x="1607.39" y="668.38" class="st20" width="11.73" height="43.03"/>
			</g>
			<g>
				<rect x="1607.39" y="668.38" class="st22" width="6.99" height="43.03"/>
			</g>
			<g>
				<path class="st20" d="M1619.67,511.47c0,2.01-3.02,3.64-6.74,3.64c-0.29,0-0.56-0.01-0.84-0.03c-3.33-0.22-5.9-1.75-5.9-3.61
					c0-1.86,2.58-3.39,5.9-3.61c0.28-0.02,0.55-0.03,0.84-0.03C1616.65,507.84,1619.67,509.47,1619.67,511.47z"/>
			</g>
			<g>
				<path class="st22" d="M1616.18,511.47c0,1.62-1.69,3.01-4.09,3.61c-3.33-0.22-5.9-1.75-5.9-3.61c0-1.86,2.58-3.39,5.9-3.61
					C1614.49,508.46,1616.18,509.85,1616.18,511.47z"/>
			</g>
			<g>
				<polygon class="st22" points="1619.11,534.9 1607.38,534.9 1603.24,514.98 1622.61,514.98 				"/>
			</g>
			<g>
				<rect x="1602.19" y="513.48" class="st20" width="21.46" height="1.91"/>
			</g>
			<g>
				<rect x="1602.19" y="513.48" class="st22" width="13.49" height="1.91"/>
			</g>
			<g>
				<path class="st23" d="M1609.31,668.38h7.5l-1.1-3.33c-0.1-0.29-0.37-0.49-0.68-0.49h-3.51c-0.38,0-0.72,0.23-0.87,0.58
					L1609.31,668.38z"/>
			</g>
			<g>
				<polygon class="st24" points="1604.63,515.95 1621.17,515.95 1617.94,533.85 1608.44,533.85 				"/>
			</g>
			<g>
				<polygon class="st20" points="1622.29,513.48 1603.56,513.48 1605.1,511.3 1620.83,511.3 				"/>
			</g>
			<g>
				<polygon class="st22" points="1617.68,513.48 1603.56,513.48 1605.1,511.3 1616.22,511.3 				"/>
			</g>
		</g>
		<g>
			<path class="st13" d="M1286.38,711.59l-118.27-0.04v-28.88c0.38,0.18,0.76,0.36,1.15,0.55c16.14,8.22,14.02,19.17,34,15.15
				c19.98-4,36.46-5.69,45.4,0c8.95,5.7,15.51,3.43,26.64,3.39C1284.52,701.75,1286.1,709.09,1286.38,711.59z"/>
		</g>
		<g>
			<g>
				<polygon class="st25" points="1310.92,678.51 1198.22,678.51 1193.02,652.02 1305.51,652.02 				"/>
			</g>
			<g>
				<polygon class="st26" points="1312.85,678.51 1200.15,678.51 1194.94,652.02 1307.43,652.02 				"/>
			</g>
			<g>
				<path class="st25" d="M1231.49,681.75h-30.8c-1.36,0-2.47-1.1-2.47-2.47v-0.78h33.26V681.75z"/>
			</g>
			<g>
				<rect x="1231.24" y="678.51" class="st27" width="102.35" height="3.24"/>
			</g>
			<g>
				<g>
					<path class="st27" d="M1204.95,681.75l-1.93,7.59c0,0,0,0,0,0.01l-5.71,22.47c-0.08,0.29-0.34,0.5-0.64,0.5
						c-0.58,0-1.02-0.53-0.91-1.1l5.09-26.22l0.63-3.26H1204.95z"/>
				</g>
			</g>
			<g>
				<path class="st25" d="M1203.02,689.34c0.19-3.88-2.16-4.33-2.16-4.33l0.63-3.26h3.46L1203.02,689.34z"/>
			</g>
			<g>
				<g>
					<path class="st27" d="M1229.4,681.75l-1.93,7.59c0,0,0,0,0,0.01l-5.71,22.47c-0.08,0.29-0.34,0.5-0.64,0.5
						c-0.58,0-1.02-0.53-0.91-1.1l5.1-26.22l0.63-3.26H1229.4z"/>
				</g>
			</g>
			<g>
				<path class="st25" d="M1227.47,689.34c0.19-3.88-2.16-4.33-2.16-4.33l0.63-3.26h3.46L1227.47,689.34z"/>
			</g>
			<g>
				<g>
					<path class="st27" d="M1324.25,681.75l1.93,7.59c0,0,0,0,0,0.01l5.71,22.47c0.08,0.29,0.34,0.5,0.64,0.5
						c0.58,0,1.02-0.53,0.91-1.1l-5.1-26.22l-0.63-3.26H1324.25z"/>
				</g>
			</g>
			<g>
				<path class="st25" d="M1326.18,689.34c-0.19-3.88,2.16-4.33,2.16-4.33l-0.63-3.26h-3.46L1326.18,689.34z"/>
			</g>
			<g>
				<g>
					<path class="st27" d="M1299.8,681.75l1.93,7.59c0,0,0,0,0,0.01l5.71,22.47c0.08,0.29,0.34,0.5,0.64,0.5
						c0.58,0,1.02-0.53,0.91-1.1l-5.1-26.22l-0.63-3.26H1299.8z"/>
				</g>
			</g>
			<g>
				<path class="st25" d="M1301.73,689.34c-0.18-3.88,2.16-4.33,2.16-4.33l-0.63-3.26h-3.46L1301.73,689.34z"/>
			</g>
		</g>
		<g>
			<path class="st13" d="M1238.36,525.84c-2.91,1.68-6.33,2.75-10.05,3c-16.32,1.02-21.98,7.09-35.18,19.94
				c-7.09,6.88-16.87,8.37-25.03,8.61v-87.28c2.3,1.64,4.67,3.34,7.08,4.94c8.98,6.02,18.72,10.91,29.36,8.32
				c10.71-2.61,18.97-2.45,25.45-0.36c8.26,2.6,13.67,8.26,17.54,15.2C1252.89,507.73,1248.26,520.18,1238.36,525.84z"/>
		</g>
		<g>
			<path class="st28" d="M1371.63,494.99c0-4.04,3.27-7.31,7.31-7.31c4.04,0,7.31,3.27,7.31,7.31c0,4.04-3.27,7.31-7.31,7.31
				C1374.9,502.3,1371.63,499.02,1371.63,494.99z"/>
		</g>
		<g>
			<path class="st28" d="M1492.01,488.47c0,0,6.35-10.21,21.55-9.08c0,0,22.06-17.02,45.58-2.27c0,0,25-3.66,43.52,3.16
				c12.34,4.55,16.42,9.32,16.42,9.32L1492.01,488.47z"/>
		</g>
		<g class="st29">
			<path class="st28" d="M1567.92,514.71c0,0,4.16-6.68,14.09-5.94c0,0,14.43-11.13,29.81-1.48c0,0,16.35-2.39,28.46,2.07
				c8.07,2.97,10.74,6.09,10.74,6.09L1567.92,514.71z"/>
		</g>
		<g class="st29">
			<path class="st28" d="M1257.6,510.08c0,0,4.16-6.68,14.09-5.94c0,0,14.43-11.13,29.81-1.48c0,0,16.35-2.39,28.46,2.07
				c8.08,2.97,10.74,6.09,10.74,6.09L1257.6,510.08z"/>
		</g>
		<g>
			<rect x="1168.11" y="711.41" class="st20" width="514.1" height="23.3"/>
		</g>
		<g>
			<g>
				<path class="st30" d="M1492.02,704.29c0,0-2.52-9.14,4.35-18.03c6.87-8.89,18.52-6.5,18.52-6.5s1.62,2.5-1.59,4.48
					c-3.22,1.98-14.43-1.98-17.25,17.49C1496.04,701.73,1494.69,705.76,1492.02,704.29z"/>
			</g>
			<g>
				<path class="st31" d="M1404.84,572.77c0-2.29,1.86-4.14,4.14-4.14c2.29,0,4.14,1.86,4.14,4.14c0,2.29-1.85,4.14-4.14,4.14
					C1406.7,576.92,1404.84,575.06,1404.84,572.77z"/>
			</g>
			<g>
				<path class="st20" d="M1505.15,698.86c0-3.21,2.6-5.81,5.81-5.81s5.81,2.6,5.81,5.81c0,3.21-2.6,5.81-5.81,5.81
					S1505.15,702.07,1505.15,698.86z"/>
			</g>
			<g>
				<path class="st20" d="M1376.3,694.42c0-4.91,3.98-8.9,8.9-8.9c4.91,0,8.9,3.98,8.9,8.9c0,4.92-3.98,8.9-8.9,8.9
					C1380.28,703.32,1376.3,699.34,1376.3,694.42z"/>
			</g>
			<g>
				<g>
					
						<rect x="1341.83" y="626.58" transform="matrix(0.1359 -0.9907 0.9907 0.1359 581.9129 1923.8671)" class="st32" width="103.96" height="3.55"/>
				</g>
			</g>
			<g>
				<g>
					<polygon class="st31" points="1390.44,580.18 1390.44,576.2 1408.55,572.24 1409.74,575.58 					"/>
				</g>
			</g>
			<g>
				<g>
					<path class="st33" d="M1385.49,711.31c-9.14,0-16.57-7.43-16.57-16.57c0-9.14,7.43-16.57,16.57-16.57
						c9.14,0,16.57,7.43,16.57,16.57C1402.06,703.88,1394.62,711.31,1385.49,711.31z M1385.49,681.53
						c-7.29,0-13.22,5.93-13.22,13.22c0,7.29,5.93,13.22,13.22,13.22s13.22-5.93,13.22-13.22
						C1398.7,687.46,1392.77,681.53,1385.49,681.53z"/>
				</g>
			</g>
			<g>
				<g>
					<path class="st33" d="M1510.96,710.97c-6.68,0-12.11-5.43-12.11-12.11c0-6.68,5.43-12.11,12.11-12.11
						c6.68,0,12.11,5.43,12.11,12.11C1523.07,705.54,1517.64,710.97,1510.96,710.97z M1510.96,689.42c-5.21,0-9.45,4.24-9.45,9.45
						c0,5.21,4.24,9.44,9.45,9.44s9.45-4.24,9.45-9.44C1520.41,693.65,1516.17,689.42,1510.96,689.42z"/>
				</g>
			</g>
			<g>
				<path class="st32" d="M1493.09,705.8h-82.24c-1.47,0-2.67-1.2-2.67-2.67v-1.28c0-1.47,1.2-2.67,2.67-2.67h82.24
					c1.47,0,2.67,1.2,2.67,2.67v1.28C1495.76,704.6,1494.56,705.8,1493.09,705.8z"/>
			</g>
			<g>
				<g>
					<path class="st32" d="M1494.05,705.84c-0.56,0-1.08-0.35-1.26-0.91c-0.23-0.7,0.14-1.45,0.84-1.68l16.91-5.64
						c0.7-0.23,1.45,0.14,1.68,0.84c0.23,0.7-0.14,1.45-0.84,1.68l-16.91,5.64C1494.33,705.82,1494.19,705.84,1494.05,705.84z"/>
				</g>
			</g>
			<g>
				<polygon class="st32" points="1390.07,653.97 1418.42,699.32 1425.62,699.32 1391.58,645.54 				"/>
			</g>
			<g>
				<path class="st33" d="M1391.69,680.2l-2.6-0.79l-2.71,8.91c-0.9,2.95-3.74,4.88-6.81,4.62l-8.61-0.73l-0.23,2.71l8.63,0.73
					c3.58,0.3,6.81,2.25,8.74,5.28l4.57,7.15l2.29-1.46l-4.41-6.91c-2.06-3.23-2.61-7.19-1.49-10.85L1391.69,680.2z"/>
			</g>
			<g>
				<path class="st33" d="M1514.86,689.58l-1.69-0.51l-1.76,5.79c-0.58,1.92-2.43,3.17-4.43,3l-5.59-0.47l-0.15,1.76l5.61,0.47
					c2.32,0.2,4.42,1.46,5.68,3.43l2.97,4.65l1.49-0.95l-2.87-4.49c-1.34-2.1-1.69-4.67-0.97-7.05L1514.86,689.58z"/>
			</g>
			<g>
				<path class="st30" d="M1509.39,698.64c0-0.74,0.6-1.33,1.33-1.33c0.73,0,1.33,0.6,1.33,1.33c0,0.74-0.6,1.33-1.33,1.33
					C1509.98,699.98,1509.39,699.38,1509.39,698.64z"/>
			</g>
			<g>
				<path class="st30" d="M1383.86,694.42c0-0.74,0.6-1.33,1.33-1.33c0.74,0,1.33,0.6,1.33,1.33c0,0.74-0.6,1.33-1.33,1.33
					C1384.46,695.76,1383.86,695.16,1383.86,694.42z"/>
			</g>
			<g>
				<path class="st30" d="M1375.04,677.25c0,0,7.77-5.44,18.44-1.94c10.68,3.5,12.33,15.27,12.33,15.27s-1.81,2.37-4.76,0
					c-2.94-2.37-2.96-14.26-22.26-10.4C1378.8,680.18,1374.56,680.26,1375.04,677.25z"/>
			</g>
			<g>
				<path class="st34" d="M1448.86,473.77c0,0-13.41,21.56-13.41,27.42c0,5.85,4.27,12.58,4.27,12.58l13.57-11.27l6.75-12.11
					L1448.86,473.77z"/>
			</g>
			<g>
				<path class="st35" d="M1459.46,505.4c0,0-4.53,8.16-12.62,6.71c0,0-2.38-3.59-2.97-6.47c-0.07-0.35-0.14-0.7-0.21-1.02
					c-0.68-3.24-1.14-5.04-1.14-5.04s0,0,0.01,0c0.31-0.21,10.56-6.97,10.63-6.59C1454.68,501.8,1459.46,505.4,1459.46,505.4z"/>
			</g>
			<g>
				<path class="st36" d="M1438.99,500.08c0,0,12.44,4.17,14.92-3.62c2.47-7.79,5.75-12.5-2.09-15.49
					c-7.84-2.99-10.33-0.51-11.79,1.89C1438.56,485.26,1435.82,498.79,1438.99,500.08z"/>
			</g>
			<g>
				<path class="st37" d="M1424.88,699.32h20.5c0.2-0.04,0.35-0.08,0.44-0.13c1.37-0.69,0.94-5.93,0.78-7.54
					c-0.03-0.3-0.05-0.48-0.05-0.48s-7.21-5.76-8.2-1.35c-0.03,0.14-0.07,0.27-0.11,0.41v0c-1.25,4.13-6.85,6.01-10.08,6.53
					C1425.68,697.16,1425.04,698.6,1424.88,699.32z"/>
			</g>
			<g>
				<path class="st37" d="M1465.01,699.32h20.5c0.2-0.04,0.34-0.08,0.44-0.13c1.37-0.69,0.94-5.93,0.78-7.54
					c-0.03-0.3-0.05-0.48-0.05-0.48s-7.21-5.76-8.2-1.35c-0.03,0.14-0.07,0.27-0.11,0.41v0c-1.25,4.13-6.85,6.01-10.08,6.53
					C1465.82,697.16,1465.18,698.6,1465.01,699.32z"/>
			</g>
			<g>
				<path class="st30" d="M1429.01,581.09c0,0,1.09,13.66,2.38,30.08c1.75,22.31,3.85,49.71,4.06,54.9
					c0.36,9.01,2.78,24.16,2.78,24.16s1.46,2.39,8.31,0.94c0,0,7.1-20.27,8.84-42.05c0.03-0.36,0.05-0.72,0.08-1.08
					c1.62-22.17,4.14-68.85,4.14-68.85L1429.01,581.09z"/>
			</g>
			<g>
				<path class="st31" d="M1429.01,581.09c0,0,1.09,13.66,2.38,30.08l23.98,37.95c0.03-0.36,0.05-0.72,0.08-1.08
					c1.62-22.17,4.14-68.85,4.14-68.85L1429.01,581.09z"/>
			</g>
			<g>
				<path class="st30" d="M1434.01,582.71c0,0,13.45,51.5,26.42,74.74c12.98,23.25,17.61,33.6,17.61,33.6s7.95,2.15,8.63,0.12
					c0,0-6.8-55.34-12.06-68.28c-2.73-6.7-4-27.3-4.27-33.79c-0.27-6.49-4.83-15.32-4.83-15.32L1434.01,582.71z"/>
			</g>
			<g>
				<path class="st20" d="M1429.58,602.77c24.95,12.34,52.26,8.35,52.21,7.5c-0.04-0.93-10.4-55.98-13.98-72.03
					c-3.34-14.95-7.85-28.05-12.03-31.04c-0.55-0.38-3.83,1.31-6.86,2.88c-2.79,1.45-5.61,1.66-8.28,1.17c0,0-1.36,1.8-2.16,3.76
					c-1.68,4.09-10.44,32.06-10.55,36.9c0,0.29-0.01,0.58-0.02,0.86c-0.03,1.4-0.06,2.8-0.08,4.2
					C1427.82,558.55,1429.3,602.63,1429.58,602.77z"/>
			</g>
			<g>
				<path class="st38" d="M1428.65,581.77c24.54-13.76,22.11-45.44,22.11-45.44l-22.91,20.63c-0.02,1.59-0.04,3.18-0.04,4.74
					c0,1.17,0,2.34,0.02,3.49l0,0.15c-0.03,0.43-0.02,0.89-0.01,1.32C1427.83,568.58,1428.63,580.03,1428.65,581.77z"/>
			</g>
			<g>
				<path class="st36" d="M1403.91,572.33c-1.22-2.11-0.27-3.03-0.27-3.03s20.27-14.89,21.87-16.4c1.6-1.52,9.55-26.22,9.55-26.22
					s2.78-10.01,8.61-10.94c5.06-0.81,8.46,1.79,10.65,4.77c2.6,3.56,2.72,8.37,0.36,12.09c-5.32,8.36-16.03,24.95-19.09,27.74
					c-6.82,6.22-28.81,13.71-28.81,13.71S1404.87,573.99,1403.91,572.33z"/>
			</g>
			<g>
				<path class="st39" d="M1453.27,498.58c0.16,0.13,2.82,1.22,8.96-8.63c0.96-1.54,1.84-5,0.23-8.27
					c-1.61-3.27-8.11-6.33-13.6-7.91c-5.49-1.58-7.12,1.44-8.73,4.48c-1.69,3.19-5.93,5.55-5.93,5.55
					c4.57,3.14,10.73-0.18,12.68,0.64c1.95,0.82,2.37,4.05,2.43,5.08c0.06,1.03,0.21,1.89,2.82,1.22c2.61-0.67,0.81,3.69,0.33,4.51
					C1452.47,495.26,1451.91,497.52,1453.27,498.58z"/>
			</g>
			<g>
				<path class="st20" d="M1448.86,473.77c0,0,6.86,11.73,7.08,16.74c0.22,5.01-15.29,20.74-15.29,20.74s13.3,3.49,18.78,0
					c0,0,12.66-17.63,12.66-20.85C1472.09,487.17,1464.67,473.96,1448.86,473.77z"/>
			</g>
			<g>
				<path class="st38" d="M1436.76,580.61c0,0,12.04,1.97,19.61,0.87l-0.17,12.1l-9.63,3.69l-9.8-5.44V580.61z"/>
			</g>
			<g>
				<path class="st36" d="M1403.6,569.3c0,0-7.76,0.39-9.32,1.85c-1.55,1.46-4.61,4.22-2.3,4.71l5.57-1.22
					c2.85,0.67,3.88,2.22,5.69,1.25s3.8-2.02,3.8-2.02L1403.6,569.3z"/>
			</g>
			<g>
				<path class="st30" d="M1385,577.63c0-2.29,1.85-4.14,4.14-4.14s4.14,1.86,4.14,4.14c0,2.29-1.85,4.14-4.14,4.14
					S1385,579.92,1385,577.63z"/>
			</g>
			<g>
				<path class="st30" d="M1497.27,548.47c-0.04,0.61-0.11,1.14-0.23,1.58c-1.63,6.22-22.67,10.92-25.03,8.67
					c-0.44-0.42-0.9-1.03-1.37-1.8c-5.99-9.85-13.59-45.73-10.6-43.6c0,0,5.59-1.75,10.19-2.18l0.81-0.06l0.03,0
					c1.45-0.09,2.76-0.01,3.68,0.33c3.91,1.45,7.04,11.67,7.04,11.67s3.22-0.46,6.1-0.11c0.35,0.04,0.7,0.1,1.04,0.17c0,0,0,0,0,0
					c0.88,0.18,1.68,0.47,2.28,0.89C1493.67,525.78,1497.7,541.74,1497.27,548.47z"/>
			</g>
			<g>
				<path class="st30" d="M1462.7,512.8c0,0-7.22-6.9-19.3-4.44l-2.75,2.89c0,0,12.13-2.92,18.81,3.46L1462.7,512.8z"/>
			</g>
			<g>
				<path class="st30" d="M1441.71,545.64c0,0,7.22,12.81,26.92,6.45l2.02,4.82c0,0-23.42,6.66-31.33-6.24L1441.71,545.64z"/>
			</g>
			<g>
				<path class="st20" d="M1444.31,513.77c0,0-5-0.57-6.85,4.09c-1.32,3.33-4.26,18.97-10.91,30.37
					c-2.66,4.57-12.81,13.49-17.04,16.73c0,0,1.54,4.95,4.85,6.27c0,0,16.01,1.62,26.53-10.35c3.01-3.4,20.9-32.55,17.21-38.57
					C1454.42,516.3,1444.31,513.77,1444.31,513.77z"/>
			</g>
			<g>
				<g>
					<path class="st31" d="M1471.07,511.06c-0.72,0.69-2.11,2.52-1.65,6.02c0.62,4.69,2.13,8.04,2.15,8.07l-0.52,0.24
						c-0.02-0.03-1.55-3.46-2.19-8.24c-0.42-3.12,0.57-5.03,1.38-6.03L1471.07,511.06z"/>
				</g>
			</g>
			<g>
				<g>
					<path class="st31" d="M1491.43,548.62l-0.55,0.17c-0.24-0.77-5.83-18.8-5.45-22.13c0.24-2.09,1.49-3.17,2.45-3.7
						c0.35,0.04,0.7,0.1,1.04,0.17c-0.67,0.21-2.62,1.04-2.92,3.6C1485.64,529.93,1491.37,548.43,1491.43,548.62z"/>
				</g>
			</g>
			<g>
				<path class="st31" d="M1466.33,540.67l4.97,14.1c0,0,6.89,0.21,11.1-2.67l-4.59-14.49
					C1477.81,537.61,1473.99,540.54,1466.33,540.67z"/>
			</g>
			<g>
				<path class="st31" d="M1497.27,548.47c-0.04,0.61-0.11,1.14-0.23,1.58c-1.63,6.22-22.67,10.92-25.03,8.67
					c-0.44-0.42-0.9-1.03-1.37-1.8C1470.84,556.9,1482.79,556.49,1497.27,548.47z"/>
			</g>
			<g>
				<path class="st40" d="M1466.33,540.67l1.46,4.14l6.58,0.45l4.72-3.62l-1.28-4.04C1477.81,537.61,1470.4,539.14,1466.33,540.67z"
					/>
			</g>
			<g>
				<path class="st32" d="M1473.38,544.02c0-0.23,0.19-0.41,0.41-0.41c0.23,0,0.41,0.18,0.41,0.41s-0.18,0.41-0.41,0.41
					C1473.57,544.43,1473.38,544.25,1473.38,544.02z"/>
			</g>
		</g>
		<g>
			<rect x="1204.8" y="783.81" class="st20" width="616.64" height="15.51"/>
		</g>
		<g>
			<rect x="1204.8" y="815.1" class="st20" width="616.64" height="15.5"/>
		</g>
		<g>
			<rect x="1479.52" y="846.4" class="st20" width="341.92" height="15.5"/>
		</g>
		<g>
			<rect x="1409.61" y="877.7" class="st20" width="265.17" height="15.51"/>
		</g>
		<g>
			<rect x="1479.52" y="908.99" class="st20" width="341.92" height="15.51"/>
		</g>
		<g>
			<rect x="887.96" y="658.13" class="st20" width="163.3" height="7.75"/>
		</g>
		<g>
			<rect x="1067" y="658.13" class="st20" width="17.97" height="17.97"/>
		</g>
		<g>
			<rect x="949.02" y="658.13" class="st41" width="74.92" height="7.75"/>
		</g>
		<g>
			<rect x="887.96" y="615.63" class="st20" width="163.3" height="7.74"/>
		</g>
		<g>
			<rect x="1067" y="615.63" class="st20" width="17.97" height="17.97"/>
		</g>
		<g>
			<rect x="909.33" y="615.63" class="st41" width="52.18" height="7.74"/>
		</g>
		<g>
			<rect x="887.96" y="573.13" class="st20" width="163.3" height="7.74"/>
		</g>
		<g>
			<rect x="1067" y="573.13" class="st38" width="17.97" height="17.97"/>
		</g>
		<g>
			<rect x="968.77" y="573.13" class="st38" width="52.18" height="7.74"/>
		</g>
		<g>
			<rect x="887.96" y="530.63" class="st20" width="163.3" height="7.74"/>
		</g>
		<g>
			<rect x="1067" y="530.63" class="st38" width="17.97" height="17.97"/>
		</g>
		<g>
			<rect x="909.33" y="530.63" class="st38" width="79.38" height="7.74"/>
		</g>
		<g>
			<rect x="887.96" y="488.13" class="st20" width="163.3" height="7.74"/>
		</g>
		<g>
			<rect x="1067" y="488.13" class="st41" width="17.97" height="17.97"/>
		</g>
		<g>
			<rect x="964.99" y="488.13" class="st41" width="69.6" height="7.74"/>
		</g>
		<g>
			<g>
				<rect x="961.51" y="754.75" class="st20" width="15.86" height="15.86"/>
			</g>
			<g>
				<rect x="989.86" y="754.75" class="st20" width="15.86" height="15.86"/>
			</g>
			<g>
				<rect x="1016.67" y="756.79" class="st20" width="82.71" height="5.89"/>
			</g>
			<g>
				<polygon class="st20" points="937.83,752.76 950.84,762.68 937.83,770.27 				"/>
			</g>
		</g>
		<g>
			<rect x="961.51" y="785.09" class="st38" width="15.86" height="15.86"/>
		</g>
		<g>
			<rect x="989.86" y="785.09" class="st20" width="15.86" height="15.86"/>
		</g>
		<g>
			<rect x="1016.67" y="787.14" class="st20" width="82.71" height="5.88"/>
		</g>
		<g>
			<polygon class="st20" points="937.83,783.11 950.84,793.02 937.83,800.61 			"/>
		</g>
		<g>
			<rect x="961.51" y="815.44" class="st41" width="15.86" height="15.86"/>
		</g>
		<g>
			<rect x="989.86" y="815.44" class="st20" width="15.86" height="15.86"/>
		</g>
		<g>
			<rect x="1016.67" y="817.49" class="st20" width="82.71" height="5.88"/>
		</g>
		<g>
			<polygon class="st20" points="937.83,813.46 950.84,823.37 937.83,830.96 			"/>
		</g>
		<g>
			<rect x="961.51" y="845.79" class="st41" width="15.86" height="15.86"/>
		</g>
		<g>
			<rect x="989.86" y="845.79" class="st20" width="15.86" height="15.86"/>
		</g>
		<g>
			<rect x="1016.67" y="847.83" class="st20" width="82.71" height="5.89"/>
		</g>
		<g>
			<polygon class="st20" points="937.83,843.8 950.84,853.72 937.83,861.31 			"/>
		</g>
		<g>
			<rect x="961.51" y="876.14" class="st38" width="15.86" height="15.86"/>
		</g>
		<g>
			<rect x="989.86" y="876.14" class="st20" width="15.86" height="15.86"/>
		</g>
		<g>
			<rect x="1016.67" y="878.18" class="st20" width="82.71" height="5.89"/>
		</g>
		<g>
			<polygon class="st20" points="937.83,874.15 950.84,884.06 937.83,891.65 			"/>
		</g>
		<g>
			<rect x="961.51" y="906.48" class="st38" width="15.86" height="15.86"/>
		</g>
		<g>
			<rect x="989.86" y="906.48" class="st20" width="15.86" height="15.86"/>
		</g>
		<g>
			<rect x="1016.67" y="908.53" class="st20" width="82.71" height="5.88"/>
		</g>
		<g>
			<polygon class="st20" points="937.83,904.5 950.84,914.41 937.83,922 			"/>
		</g>
		<g class="st29">
			<g>
				<path class="st16" d="M885.48,761.51c0,0,4.19-5.4,9.86-5.4c5.79,0,9.36,5.4,9.36,5.4s-3.02,5.41-9.36,5.41
					C888.66,766.92,885.48,761.51,885.48,761.51z"/>
			</g>
			<g>
				<path class="st42" d="M891.35,761.51c0-2.07,1.68-3.74,3.74-3.74s3.74,1.67,3.74,3.74s-1.68,3.74-3.74,3.74
					S891.35,763.58,891.35,761.51z"/>
			</g>
			<g>
				<path class="st16" d="M892.81,761.51c0-1.26,1.02-2.29,2.29-2.29c1.26,0,2.29,1.02,2.29,2.29c0,1.26-1.02,2.29-2.29,2.29
					C893.83,763.8,892.81,762.78,892.81,761.51z"/>
			</g>
		</g>
		<g class="st29">
			<g>
				<path class="st16" d="M885.48,791.86c0,0,4.19-5.41,9.86-5.41c5.79,0,9.36,5.41,9.36,5.41s-3.02,5.41-9.36,5.41
					C888.66,797.27,885.48,791.86,885.48,791.86z"/>
			</g>
			<g>
				<path class="st42" d="M891.35,791.86c0-2.07,1.68-3.74,3.74-3.74s3.74,1.68,3.74,3.74c0,2.07-1.68,3.74-3.74,3.74
					S891.35,793.93,891.35,791.86z"/>
			</g>
			<g>
				<path class="st16" d="M892.81,791.86c0-1.26,1.02-2.29,2.29-2.29c1.26,0,2.29,1.02,2.29,2.29c0,1.26-1.02,2.29-2.29,2.29
					C893.83,794.15,892.81,793.12,892.81,791.86z"/>
			</g>
		</g>
		<g class="st29">
			<g>
				<path class="st16" d="M885.48,822.21c0,0,4.19-5.41,9.86-5.41c5.79,0,9.36,5.41,9.36,5.41s-3.02,5.41-9.36,5.41
					C888.66,827.62,885.48,822.21,885.48,822.21z"/>
			</g>
			<g>
				<path class="st42" d="M891.35,822.21c0-2.07,1.68-3.74,3.74-3.74s3.74,1.67,3.74,3.74s-1.68,3.74-3.74,3.74
					S891.35,824.28,891.35,822.21z"/>
			</g>
			<g>
				<path class="st16" d="M892.81,822.21c0-1.26,1.02-2.29,2.29-2.29c1.26,0,2.29,1.02,2.29,2.29c0,1.26-1.02,2.28-2.29,2.28
					C893.83,824.49,892.81,823.47,892.81,822.21z"/>
			</g>
		</g>
		<g class="st29">
			<g>
				<path class="st16" d="M885.48,852.56c0,0,4.19-5.41,9.86-5.41c5.79,0,9.36,5.41,9.36,5.41s-3.02,5.41-9.36,5.41
					C888.66,857.96,885.48,852.56,885.48,852.56z"/>
			</g>
			<g>
				<path class="st42" d="M891.35,852.56c0-2.07,1.68-3.74,3.74-3.74s3.74,1.67,3.74,3.74c0,2.07-1.68,3.74-3.74,3.74
					S891.35,854.62,891.35,852.56z"/>
			</g>
			<g>
				<path class="st16" d="M892.81,852.56c0-1.26,1.02-2.29,2.29-2.29c1.26,0,2.29,1.02,2.29,2.29c0,1.26-1.02,2.29-2.29,2.29
					C893.83,854.84,892.81,853.82,892.81,852.56z"/>
			</g>
		</g>
		<g class="st29">
			<g>
				<path class="st16" d="M885.48,882.9c0,0,4.19-5.4,9.86-5.4c5.79,0,9.36,5.4,9.36,5.4s-3.02,5.41-9.36,5.41
					C888.66,888.31,885.48,882.9,885.48,882.9z"/>
			</g>
			<g>
				<path class="st42" d="M891.35,882.9c0-2.07,1.68-3.74,3.74-3.74s3.74,1.67,3.74,3.74s-1.68,3.74-3.74,3.74
					S891.35,884.97,891.35,882.9z"/>
			</g>
			<g>
				<path class="st16" d="M892.81,882.9c0-1.26,1.02-2.29,2.29-2.29c1.26,0,2.29,1.02,2.29,2.29c0,1.26-1.02,2.29-2.29,2.29
					C893.83,885.19,892.81,884.17,892.81,882.9z"/>
			</g>
		</g>
		<g class="st29">
			<g>
				<path class="st16" d="M885.48,913.25c0,0,4.19-5.41,9.86-5.41c5.79,0,9.36,5.41,9.36,5.41s-3.02,5.41-9.36,5.41
					C888.66,918.66,885.48,913.25,885.48,913.25z"/>
			</g>
			<g>
				<path class="st42" d="M891.35,913.25c0-2.07,1.68-3.74,3.74-3.74s3.74,1.67,3.74,3.74c0,2.07-1.68,3.74-3.74,3.74
					S891.35,915.32,891.35,913.25z"/>
			</g>
			<g>
				<path class="st16" d="M892.81,913.25c0-1.26,1.02-2.29,2.29-2.29c1.26,0,2.29,1.02,2.29,2.29s-1.02,2.29-2.29,2.29
					C893.83,915.54,892.81,914.51,892.81,913.25z"/>
			</g>
		</g>
		<g>
			<rect x="1586.49" y="877.7" class="st30" width="234.95" height="15.51"/>
		</g>
		<g>
			<rect x="1628.01" y="846.4" class="st30" width="136.51" height="15.5"/>
		</g>
		<g>
			<rect x="1612.93" y="783.81" class="st30" width="157.98" height="15.51"/>
		</g>
		<g>
			<rect x="1660.97" y="815.1" class="st38" width="136.51" height="15.5"/>
		</g>
		<g>
			<g>
				<path class="st42" d="M1286.24,554.42c-32.28-41.24-68.2-42.69-68.56-42.7l0.03-0.93c0.36,0.01,36.72,1.47,69.27,43.05
					L1286.24,554.42z"/>
			</g>
			<g>
				<path class="st41" d="M1213.5,511.25c0-2.12,1.72-3.83,3.83-3.83s3.83,1.72,3.83,3.83c0,2.12-1.72,3.83-3.83,3.83
					S1213.5,513.37,1213.5,511.25z"/>
			</g>
			<g>
				<path class="st41" d="M1282.77,553.75c0-2.12,1.72-3.83,3.83-3.83c2.12,0,3.83,1.72,3.83,3.83c0,2.12-1.72,3.83-3.83,3.83
					C1284.48,557.58,1282.77,555.86,1282.77,553.75z"/>
			</g>
		</g>
		<g>
			<g>
				<path class="st42" d="M1295.89,503.28l-0.71-0.6c0.24-0.28,24.24-27.68,76.98-26.94l-0.01,0.93
					C1319.8,475.96,1296.13,503.01,1295.89,503.28z"/>
			</g>
			<g>
				<path class="st41" d="M1292.92,506.24c-1.65-1.33-1.91-3.74-0.58-5.39c1.33-1.65,3.74-1.91,5.39-0.58
					c1.65,1.33,1.91,3.74,0.58,5.39C1296.98,507.31,1294.56,507.57,1292.92,506.24z"/>
			</g>
			<g>
				<path class="st41" d="M1369.46,478.95c-1.65-1.33-1.91-3.74-0.58-5.39c1.33-1.65,3.74-1.91,5.39-0.58
					c1.65,1.33,1.91,3.74,0.58,5.39C1373.52,480.01,1371.1,480.27,1369.46,478.95z"/>
			</g>
		</g>
		<g>
			<g>
				<path class="st42" d="M1540.42,503.18l-0.84-0.72c0.27-0.31,27.39-31.06,90.85-26.98l-0.07,1.1
					C1567.44,472.55,1540.69,502.88,1540.42,503.18z"/>
			</g>
			<g>
				<path class="st41" d="M1537.05,506.49c-2.06-1.66-2.52-4.51-1.03-6.37c1.49-1.86,4.38-2.01,6.44-0.35
					c2.06,1.66,2.52,4.51,1.03,6.37C1541.99,507.99,1539.11,508.15,1537.05,506.49z"/>
			</g>
			<g>
				<path class="st41" d="M1627.32,479.09c-2.06-1.66-2.52-4.51-1.03-6.37c1.5-1.86,4.38-2.01,6.44-0.35
					c2.06,1.66,2.52,4.51,1.03,6.37C1632.27,480.6,1629.38,480.75,1627.32,479.09z"/>
			</g>
		</g>
		<g>
			<rect x="1431.41" y="517.55" class="st42" width="64.43" height="0.93"/>
		</g>
		<g>
			<path class="st43" d="M1427.58,518.01c0-2.12,1.72-3.83,3.83-3.83s3.83,1.72,3.83,3.83c0,2.12-1.72,3.84-3.83,3.84
				S1427.58,520.13,1427.58,518.01z"/>
		</g>
		<g>
			<path class="st43" d="M1492.01,518.01c0-2.12,1.72-3.83,3.83-3.83c2.12,0,3.83,1.72,3.83,3.83c0,2.12-1.72,3.84-3.83,3.84
				C1493.73,521.85,1492.01,520.13,1492.01,518.01z"/>
		</g>
		<g>
			<g>
				
					<rect x="1559.72" y="765.13" transform="matrix(0.7072 0.7071 -0.7071 0.7072 1002.3806 -880.6698)" class="st41" width="9.29" height="9.29"/>
			</g>
		</g>
		<g>
			<path class="st42" d="M1395.15,634.61c-36.68,0-75.38-6.44-106.75-13.5c-56.89-12.79-102.63-30.3-103.09-30.48l0.33-0.87
				c0.45,0.18,46.14,17.66,102.97,30.44c52.41,11.79,125.29,21.86,174.85,2.94c49.76-19,102.45-16.25,137.88-10.61
				c38.38,6.12,65.36,16.87,65.63,16.98l-0.35,0.86c-0.27-0.11-27.17-10.83-65.45-16.93c-35.32-5.63-87.81-8.36-137.38,10.56
				C1443.74,631.68,1419.9,634.61,1395.15,634.61z"/>
		</g>
		<g>
			<path class="st44" d="M1470.28,620.18c0-2.12,1.72-3.83,3.83-3.83c2.12,0,3.83,1.72,3.83,3.83c0,2.12-1.72,3.83-3.83,3.83
				C1471.99,624.01,1470.28,622.29,1470.28,620.18z"/>
		</g>
		<g>
			<path class="st44" d="M1363.96,633.65c0-2.12,1.72-3.83,3.83-3.83c2.12,0,3.83,1.72,3.83,3.83s-1.72,3.83-3.83,3.83
				C1365.68,637.49,1363.96,635.77,1363.96,633.65z"/>
		</g>
		<g>
			<g>
				<path class="st42" d="M1388.6,727.51c-7.91,0-16.75-1.36-25.57-5.42l0.39-0.84c26.43,12.15,53.04-0.21,53.3-0.33l0.4,0.84
					C1416.94,721.84,1404.72,727.51,1388.6,727.51z"/>
			</g>
			<g>
				<path class="st41" d="M1419.33,724.31c-1.65,1.33-4.06,1.07-5.39-0.57c-1.33-1.65-1.07-4.06,0.57-5.39
					c1.65-1.33,4.06-1.08,5.39,0.57C1421.23,720.57,1420.98,722.98,1419.33,724.31z"/>
			</g>
			<g>
				<path class="st41" d="M1365.63,724.65c-1.65,1.33-4.06,1.07-5.39-0.57c-1.33-1.65-1.08-4.06,0.57-5.39
					c1.65-1.33,4.06-1.08,5.39,0.57C1367.53,720.91,1367.28,723.32,1365.63,724.65z"/>
			</g>
		</g>
		<g>
			<g>
				<path class="st42" d="M1515.31,727.51c-7.91,0-16.75-1.36-25.57-5.42l0.39-0.84c26.43,12.15,53.04-0.21,53.3-0.33l0.4,0.84
					C1543.64,721.84,1531.43,727.51,1515.31,727.51z"/>
			</g>
			<g>
				<path class="st41" d="M1546.03,724.31c-1.65,1.33-4.06,1.07-5.39-0.57c-1.33-1.65-1.07-4.06,0.57-5.39
					c1.65-1.33,4.06-1.08,5.39,0.57C1547.94,720.57,1547.68,722.98,1546.03,724.31z"/>
			</g>
			<g>
				<path class="st41" d="M1492.34,724.65c-1.65,1.33-4.06,1.07-5.39-0.57c-1.33-1.65-1.07-4.06,0.57-5.39
					c1.65-1.33,4.06-1.08,5.39,0.57C1494.24,720.91,1493.98,723.32,1492.34,724.65z"/>
			</g>
		</g>
		<g class="st45">
			<path class="st20" d="M1682.21,586.22V717.5l-46.93-6.09c0,0-4.19-27.67,15.75-36.46
				C1669.57,666.79,1657.1,595.59,1682.21,586.22z"/>
		</g>
		<g>
			<path class="st41" d="M1660.69,629.96c0-2.12,1.72-3.83,3.83-3.83s3.83,1.72,3.83,3.83c0,2.12-1.72,3.83-3.83,3.83
				S1660.69,632.07,1660.69,629.96z"/>
		</g>
		<g>
			<path class="st41" d="M1182.59,590.21c0-2.12,1.72-3.83,3.83-3.83c2.12,0,3.83,1.72,3.83,3.83c0,2.12-1.72,3.83-3.83,3.83
				C1184.31,594.04,1182.59,592.32,1182.59,590.21z"/>
		</g>
	</g>
	<g class="st15">
		<rect x="1724.85" y="453.62" class="st16" width="247.56" height="281.1"/>
	</g>
	<g>
		<g>
			<g>
				<rect x="1746.4" y="470.54" class="st20" width="120.84" height="3.45"/>
			</g>
			<g>
				<rect x="1746.4" y="479.12" class="st20" width="93.5" height="3.45"/>
			</g>
		</g>
		<g>
			<rect x="1930.87" y="472.54" class="st20" width="6.54" height="6.54"/>
		</g>
		<g>
			<g>
				<rect x="1746.4" y="508.67" class="st20" width="120.84" height="3.45"/>
			</g>
			<g>
				<rect x="1746.4" y="517.25" class="st20" width="93.5" height="3.45"/>
			</g>
		</g>
		<g>
			<rect x="1930.87" y="510.67" class="st20" width="6.54" height="6.54"/>
		</g>
		<g>
			<g>
				<rect x="1746.4" y="546.8" class="st20" width="120.84" height="3.45"/>
			</g>
			<g>
				<rect x="1746.4" y="555.38" class="st20" width="93.5" height="3.45"/>
			</g>
		</g>
		<g>
			<rect x="1930.87" y="548.8" class="st20" width="6.54" height="6.54"/>
		</g>
		<g>
			<g>
				<rect x="1746.4" y="584.93" class="st20" width="120.84" height="3.45"/>
			</g>
			<g>
				<rect x="1746.4" y="593.51" class="st20" width="93.5" height="3.45"/>
			</g>
		</g>
		<g>
			<rect x="1930.87" y="586.93" class="st20" width="6.54" height="6.54"/>
		</g>
		<g>
			<g>
				<rect x="1746.4" y="623.06" class="st20" width="120.84" height="3.45"/>
			</g>
			<g>
				<rect x="1746.4" y="631.64" class="st20" width="93.5" height="3.45"/>
			</g>
		</g>
		<g>
			<rect x="1930.87" y="625.06" class="st20" width="6.54" height="6.54"/>
		</g>
		<g>
			<rect x="1930.87" y="659.64" class="st20" width="6.54" height="6.54"/>
		</g>
		<g>
			<g>
				<rect x="1746.4" y="661.19" class="st20" width="120.84" height="3.45"/>
			</g>
			<g>
				<rect x="1746.4" y="669.77" class="st20" width="93.5" height="3.45"/>
			</g>
		</g>
		<g>
			<g>
				<rect x="1746.4" y="699.32" class="st20" width="120.84" height="3.45"/>
			</g>
			<g>
				<rect x="1746.4" y="707.9" class="st20" width="93.5" height="3.45"/>
			</g>
		</g>
		<g>
			<rect x="1930.87" y="701.33" class="st20" width="6.54" height="6.54"/>
		</g>
	</g>
	<g>
		<g>
			<g>
				<path class="st46" d="M1829.61,1295.78c0,0-17.28,42.7-11.19,47.16c6.09,4.46,26.99-13.68,32.53-32.82
					C1856.5,1290.97,1829.61,1295.78,1829.61,1295.78z"/>
			</g>
			<g>
				<path class="st36" d="M2182.68,1583.84c-76.45-0.01-156.26-0.01-231.69-0.03c-2.91-7.02-6-14.39-9.22-21.89
					c-20.92-48.73-47.17-103.59-61.78-110.12c-26.88-12.01-43.06-1.5-76.51-40.54c-33.45-39.04-54.72-52.31-41.58-61.33
					c13.14-9,56.52,24.85,68.55,23.39c9.66-1.18,14.69-24.59,13.9-49.32c-0.2-6.47-0.81-13.02-1.84-19.29v-0.01
					c-0.51-3.17-1.14-6.25-1.86-9.21c-1.15-4.64-2.56-8.98-4.25-12.84c-3.29-7.5-2.99-12.65-0.49-16.09
					c7.5-10.33,34.92-5.35,45.27-2.9c4.62,1.1,18.91-7.56,28.92-2.63c15.53,7.65,24.58-1.18,34.89,5.46
					c7.29,4.69,22.31,6.89,27.48,13.66c9.85,12.88,12.28,40.14,21.88,65.33c8.88,23.31,11.97,47.77,42.43,89.06
					c13.57,18.39,55.59,61.07,98.02,102.75C2151.24,1553.45,2167.75,1569.46,2182.68,1583.84z"/>
			</g>
			<g>
				<path class="st36" d="M1835.72,1266.5c0,0-63.78,52.22-55.5,59.23c8.29,7.01,29.31,0.12,63.72-21.92
					C1878.35,1281.76,1835.72,1266.5,1835.72,1266.5z"/>
			</g>
		</g>
		<g>
			<path class="st4" d="M2201.8,1583.84h-19.12c-76.45-0.01-156.26-0.01-231.69-0.03h-22.54l-2.62-5.42c0,0,5.31-7.19,15.93-16.47
				c27.87-24.38,92.27-63.22,193.03-24.62c4.48,1.72,9.03,3.58,13.66,5.62L2201.8,1583.84z"/>
		</g>
	</g>
	<g>
		<g>
			<g>
				<path class="st46" d="M1159.4,1322.44c0,0,11.07,44.71,4.41,48.26c-6.66,3.55-24.79-17.35-27.57-37.09
					C1133.46,1313.89,1159.4,1322.44,1159.4,1322.44z"/>
			</g>
			<g>
				<path class="st36" d="M1168.95,1440.47c-38.63,33.91-53.17,21.23-81.47,29.32c-15.38,4.4-49.12,55-76.72,100.29
					c-2.36,3.87-4.67,7.7-6.93,11.47c-91.12-0.33-182.43-0.65-266.55-0.96c22.8-16.27,54.38-38.99,85.85-62.16
					c47.9-35.27,95.55-71.59,111.59-87.89c35.99-36.56,42.5-60.33,54.59-82.17c12.88-23.27,12.5-50.65,30.29-50.38
					c8.77,0.13,16.5-11.31,24.58-15.02c11.14-5.1,21.79,6.25,38.25,0.88c10.61-3.46,25.15,5.91,29.87,5.47
					c9.09-0.83,31.08-4.2,41.04,0.94c5.53,2.84,7.35,8.29,1.2,18.24c-2.22,3.58-4.23,7.68-6.02,12.11
					c-1.01,2.51-1.96,5.12-2.83,7.82c-2.05,6.37-3.7,13.14-4.88,19.87c-4.28,24.37-2.6,48.26,6.8,50.79
					c11.7,3.15,60.13-29.35,71.87-18.57C1231.21,1391.3,1207.58,1406.55,1168.95,1440.47z"/>
			</g>
			<g>
				<path class="st36" d="M1152.33,1289.96c0,0,96.32,28.7,91.32,38.32c-5.01,9.63-55.42,7.98-95.62,0.63
					C1107.82,1321.56,1152.33,1289.96,1152.33,1289.96z"/>
			</g>
		</g>
		<g>
			<path class="st4" d="M1019.73,1581.6c-5.3-0.02-10.6-0.04-15.9-0.06c-91.12-0.33-182.43-0.65-266.55-0.96
				c-10.89-0.04-21.65-0.08-32.28-0.11l103.83-58.42c4.87-1.36,9.62-2.56,14.3-3.62c105.23-23.99,163.5,23.58,187.64,51.65
				C1014.6,1574.53,1017.57,1578.49,1019.73,1581.6z"/>
		</g>
	</g>
	<g>
		<g>
			<path class="st4" d="M1513.08,1509.62c0,0.62,0.04,1.24,0.11,1.83c0.23,1.93,0.83,3.74,1.71,5.37c0.69,1.27,1.57,2.43,2.58,3.45
				c2.73,2.73,6.49,4.41,10.65,4.41h211.81c8.32,0,15.06-6.74,15.06-15.06c0-4.16-1.68-7.93-4.41-10.65
				c-2.73-2.73-6.49-4.41-10.65-4.41h-211.81C1519.82,1494.55,1513.08,1501.3,1513.08,1509.62z"/>
		</g>
		<g>
			<path class="st4" d="M1529.23,1491.83h72.62c1.27,0,2.31-1.04,2.31-2.31l0,0c0-1.27-1.04-2.31-2.31-2.31h-72.62
				c-1.27,0-2.31,1.04-2.31,2.31l0,0C1526.92,1490.79,1527.96,1491.83,1529.23,1491.83z"/>
		</g>
		<g>
			
				<rect x="1533.25" y="1491.83" transform="matrix(-1 -1.224647e-16 1.224647e-16 -1 3074.3633 2986.3823)" class="st39" width="7.87" height="2.73"/>
		</g>
		<g>
			<path class="st39" d="M1514.91,1516.82c0.69,1.27,1.57,2.43,2.58,3.45c2.73,2.73,6.49,4.41,10.65,4.41H1573v-7.86H1514.91z"/>
		</g>
		<g>
			<path class="st30" d="M1783.05,1505.2v8.82c0,0.97-0.13,1.91-0.37,2.79c-1.22,4.53-5.36,7.86-10.28,7.86h-220.64
				c-4.92,0-9.05-3.33-10.28-7.86c-0.24-0.89-0.37-1.83-0.37-2.79v-8.82c0-5.88,4.76-10.65,10.65-10.65h220.64
				C1778.29,1494.55,1783.05,1499.32,1783.05,1505.2z"/>
		</g>
		<g>
			<path class="st40" d="M1782.68,1516.82c-1.22,4.53-5.36,7.86-10.28,7.86h-220.64c-4.92,0-9.05-3.33-10.28-7.86H1782.68z"/>
		</g>
		<g>
			<g>
				<path class="st8" d="M1761.14,1509.67c0,4.68,1.7,8.86,4.38,11.63c0.06,0.06,0.12,0.12,0.18,0.18c2.07,2.06,4.7,3.3,7.56,3.3
					c4.47,0,15.54-6.74,22.4-11.21c3.42-2.23,5.79-3.9,5.79-3.9s-2.38-1.67-5.79-3.9c-6.86-4.48-17.93-11.22-22.4-11.22
					c-1.29,0-2.54,0.25-3.71,0.72c-1.97,0.79-3.72,2.19-5.11,4.03c-1.53,2.01-2.61,4.55-3.07,7.37c0,0.03-0.01,0.06-0.01,0.1
					C1761.22,1507.7,1761.14,1508.68,1761.14,1509.67z"/>
			</g>
			<g>
				<path class="st47" d="M1761.14,1509.67c0,4.68,1.7,8.86,4.38,11.63l33.96-11.68l-38.12-2.85
					C1761.22,1507.7,1761.14,1508.68,1761.14,1509.67z"/>
			</g>
			<g>
				<path class="st48" d="M1764.44,1499.3l33.88,9.25l-28.77-13.28C1767.58,1496.06,1765.83,1497.47,1764.44,1499.3z"/>
			</g>
			<g>
				<path class="st49" d="M1793.45,1509.67c0,1.8,0.92,3.33,2.21,3.9c3.42-2.23,5.79-3.9,5.79-3.9s-2.38-1.67-5.79-3.9
					C1794.37,1506.33,1793.45,1507.87,1793.45,1509.67z"/>
			</g>
		</g>
	</g>
	<g>
		<g>
			<path class="st31" d="M451.9,1469.81c8.86,0.02,18.09-1,27.52-3.15c35.72-8.14,73.86-32.39,101.85-77.09
				c0,0-5.86-30.02-22.7-53.54l-0.01,0c-11.68-16.31-31.87-35.66-55.96-35.79c-15.52-0.08-26.5,5.57-35.08,12.91
				c-14.6,12.47-22.29,29.84-33.61,32.35c-11.16,2.47-23.23,8.43-33.42,16.92c-1.67,1.39-3.29,2.84-4.84,4.37l-0.01,0.01
				c-0.65,0.63-1.28,1.26-1.91,1.91c-0.02,0.01-0.03,0.03-0.04,0.04c-13.71,14.38-21.79,33.94-14.94,55.51
				c1.58,5,4.04,10.19,7.58,15.53C398.91,1458.87,423.35,1469.76,451.9,1469.81z"/>
		</g>
		<g>
			<path class="st50" d="M491.02,1312.76c0,0,20.89-7.3,30.75,5.33c9.86,12.64-3.43,20.46-14.57,18.45
				C496.06,1334.53,480.58,1319.66,491.02,1312.76z"/>
		</g>
		<g>
			<path class="st51" d="M378.76,1424.28c1.58,5,4.55,9.9,7.58,15.54c21.42,39.83,51.4,56.56,74.18,62.03
				c25.18,6.04,72.33-4.17,91.07-16.28c30.78-19.88,40.16-55.29,29.67-96c0,0-5.86-30.02-22.7-53.53l-0.01,0
				c0,0-13.4,68.87-91.9,91.61C431.01,1437.98,400.95,1432.9,378.76,1424.28z"/>
		</g>
		<g>
			<g>
				<path class="st13" d="M409.18,1325.63c0.4-12.53,13.86-16.85,24.84-24.85c10.99-7.99,24.02-28.56,24.02-28.56
					s-17.54,0.67-38.44,6.79C398.69,1285.12,409.18,1325.63,409.18,1325.63z"/>
			</g>
			<g>
				<path class="st14" d="M409.18,1325.63c-1.55-13,4.52-31.34,12.59-37.02c8.07-5.68,36.26-16.38,36.26-16.38
					s-17.54,0.67-38.44,6.79C398.69,1285.12,409.18,1325.63,409.18,1325.63z"/>
			</g>
		</g>
		<g>
			<path class="st51" d="M433.91,1345.52c-11.16,2.47-23.23,8.43-33.42,16.92c18.38-13.78,47.74-9.09,49.48-17.67
				c1.85-9.2,16.97-30.79,17.55-31.61C452.92,1325.63,445.23,1343.01,433.91,1345.52z"/>
		</g>
		<g>
			<path class="st52" d="M393.74,1368.74c0.53-0.47,1.16-1.1,1.91-1.91C395,1367.45,394.37,1368.08,393.74,1368.74z"/>
		</g>
		<g>
			<g>
				<path class="st14" d="M448.69,1345.76L448.69,1345.76c-9.12-14.02-27.06-21.07-40.5-24.5c-10.7-2.74-26.19-4.78-33.62-5.66
					c-1.57-0.19-2.56,1.63-1.56,2.86l2.64,3.24c2.65,3.25,6.57,5.19,10.76,5.3c12.88,0.32,41.8,2.91,56.41,19.42
					C444.46,1348.27,450.33,1348.27,448.69,1345.76z"/>
			</g>
		</g>
	</g>
	<g>
		<g>
			<g>
				
					<rect x="618.89" y="1074.16" transform="matrix(0.9873 -0.1586 0.1586 0.9873 -176.5151 114.0846)" class="st53" width="15.04" height="177.27"/>
			</g>
			<g>
				<polygon class="st54" points="607.4,1044.46 604.93,1076.47 619.78,1074.08 				"/>
			</g>
		</g>
		<g>
			<g>
				
					<rect x="749.56" y="1088.74" transform="matrix(0.9832 0.1826 -0.1826 0.9832 227.7778 -118.4722)" class="st53" width="15.04" height="177.27"/>
			</g>
			<g>
				<polygon class="st54" points="778.97,1059.55 765.88,1088.86 780.67,1091.61 				"/>
			</g>
		</g>
		<g>
			<g>
				
					<rect x="730.81" y="1037.62" transform="matrix(0.9832 0.1827 -0.1827 0.9832 218.1476 -115.917)" class="st53" width="15.04" height="177.27"/>
			</g>
			<g>
				<polygon class="st54" points="760.22,1008.43 747.13,1037.74 761.92,1040.49 				"/>
			</g>
		</g>
		<g>
			<g>
				<rect x="660.61" y="1147.98" class="st31" width="118.47" height="170.73"/>
			</g>
			<g>
				<rect x="601.37" y="1147.98" class="st30" width="118.47" height="170.73"/>
			</g>
		</g>
	</g>
	<g>
		
			<rect x="1809.41" y="1049.26" transform="matrix(0.9824 0.1868 -0.1868 0.9824 241.1839 -331.7917)" class="st13" width="143.23" height="129.05"/>
	</g>
	<g>
		
			<rect x="1809.41" y="1060.81" transform="matrix(0.9824 0.1868 -0.1868 0.9824 233.0332 -332.5707)" class="st14" width="143.23" height="18.59"/>
	</g>
	<g>
		<g>
			
				<rect x="889.9" y="1032.21" transform="matrix(0.9725 -0.2328 0.2328 0.9725 -228.9031 253.9735)" class="st8" width="143.23" height="129.05"/>
		</g>
		<g>
			
				<rect x="878.18" y="1033.6" transform="matrix(0.9725 -0.2328 0.2328 0.9725 -217.8186 249.886)" class="st47" width="143.23" height="28.38"/>
		</g>
	</g>
	<g>
		<g>
			
				<rect x="1909.51" y="951.22" transform="matrix(0.985 -0.1725 0.1725 0.985 -145.5201 356.9748)" class="st55" width="143.23" height="129.05"/>
		</g>
		<g>
			
				<rect x="1900.83" y="951.98" transform="matrix(0.985 -0.1725 0.1725 0.985 -137.0955 354.7271)" class="st56" width="143.23" height="28.38"/>
		</g>
	</g>
</g>
</svg>
